<?xml version="1.0" encoding="UTF-8" standalone="no"?>
<svg width="144px" height="30px" viewBox="0 0 144 30" version="1.1" xmlns="http://www.w3.org/2000/svg" xmlns:xlink="http://www.w3.org/1999/xlink">
    <!-- Generator: Sketch 50.2 (55047) - http://www.bohemiancoding.com/sketch -->
    <title>logo</title>
    <desc>Created with Sketch.</desc>
    <defs></defs>
    <g id="Symbols" stroke="none" stroke-width="1" fill="none" fill-rule="evenodd">
        <g id="logo_toolbar_obrigado" transform="translate(-43.000000, -5.000000)" fill="#FFFFFF">
            <path d="M43,5 L43,5.7121725 L60.8328314,5.71190597 L60.8328314,5.7121725 L66.4659772,5.71190597 C64.4286095,9.53343639 54.8723847,27.4550228 54.8931741,27.3825262 L66.8452517,27.3825262 L66.8452517,5.71190597 L66.8452517,5 L62.709214,5 L43,5 Z M47.4246915,34.2883606 L43.3798076,34.2883606 C45.4171753,30.4668301 54.9734001,12.5449772 54.9520776,12.6180069 L43,12.6180069 L43.0005331,34.2883606 L43,34.2883606 L43,35 L47.4246915,35 L49.0124204,35 L66.8452517,35 L66.8452517,34.2883606 L49.0124204,34.2883606 L47.4246915,34.2883606 Z M183.588502,12.7459421 L183.587969,27.3596045 L186.8154,27.3596045 L186.815933,12.7459421 L183.588502,12.7459421 Z M173.380341,21.7432501 L166.50569,12.7459421 L163.529065,12.7459421 L163.528532,27.3593379 L166.715184,27.3593379 L166.715184,18.0691117 L173.820384,27.3593379 L176.566193,27.3593379 L176.566193,12.7459421 L173.380341,12.7459421 L173.380341,21.7432501 Z M153.279325,27.3590714 L156.507023,27.3590714 L156.507556,12.7459421 L153.280125,12.745409 L153.279325,27.3590714 Z M135.149044,15.7097737 L139.613716,15.7097737 L139.613183,27.3585383 L142.841147,27.3585383 L142.84168,15.7097737 L147.306085,15.7097737 L147.306085,12.7456755 L135.149044,12.7456755 L135.149044,15.7097737 Z M118.213359,15.7097737 L122.677763,15.7097737 L122.677497,27.3585383 L125.905461,27.3585383 L125.905461,15.7097737 L130.370399,15.7097737 L130.370399,12.745409 L118.213359,12.745409 L118.213359,15.7097737 Z M103.876356,21.241371 L105.825502,16.5024388 L107.774914,21.2419041 L103.876356,21.241371 Z M104.379301,12.6406621 L98.0915536,27.3582718 L101.382153,27.3582718 L102.723873,24.0807324 L108.92713,24.0812655 L110.269384,27.3588049 L113.643674,27.3588049 L107.355926,12.6406621 L104.379301,12.6406621 Z M80.9668968,15.5631813 L88.7853354,15.5637144 L80.7152909,24.9155095 L80.7152909,27.3582718 L92.9344332,27.3582718 L92.9344332,24.5399664 L84.8654548,24.5399664 L92.9352328,15.1873717 L92.9352328,12.745409 L80.9668968,12.7448759 L80.9668968,15.5631813 Z" id="logo"></path>
        </g>
    </g>
</svg>